<?xml version="1.0" encoding="UTF-8"?>
<svg version="1.1" xmlns="http://www.w3.org/2000/svg" width="994" height="256">
<path d="M0 0 C1.24027954 -0.00571014 2.48055908 -0.01142029 3.75842285 -0.01730347 C5.12016286 -0.01854862 6.48190299 -0.01967376 7.84364319 -0.02069092 C9.28815333 -0.02532412 10.73266227 -0.03034945 12.1771698 -0.03573608 C16.09298559 -0.04881925 20.00878426 -0.05529779 23.92461848 -0.05974674 C26.37744736 -0.06268587 28.83027166 -0.06679238 31.28309822 -0.07125092 C38.97552401 -0.08491907 46.66793921 -0.09458738 54.3603763 -0.09845281 C63.20546283 -0.10292307 72.05039402 -0.12042569 80.89543337 -0.1494534 C87.75348466 -0.17116922 94.61149259 -0.18116244 101.46957785 -0.18249393 C105.55512673 -0.18353549 109.64052948 -0.18930269 113.72604179 -0.20731354 C117.57814565 -0.22396497 121.42999623 -0.22586838 125.28212357 -0.21717453 C126.68359754 -0.21641301 128.08508611 -0.22062749 129.48652458 -0.23063278 C146.80007701 -0.34682855 164.38202466 2.19190178 177.48500061 14.42755127 C190.17938956 27.27813988 193.18396305 43.72388558 193.12684631 61.11407471 C193.13256019 62.69725523 193.13952836 64.28043165 193.14764404 65.86360168 C193.16548205 70.13454257 193.16442436 74.40527694 193.15870166 78.67624378 C193.15559499 82.25675465 193.16171887 85.83722669 193.1677404 89.417732 C193.18175446 97.87432617 193.1802515 106.33081926 193.1688385 114.78741455 C193.15737114 123.47559172 193.1714168 132.16345969 193.19823498 140.85159612 C193.22048116 148.34245816 193.22700905 155.83322378 193.22115856 163.32411647 C193.21780772 167.7840775 193.22007766 172.24384063 193.23740959 176.7037735 C193.25301878 180.90321188 193.24877066 185.10219719 193.23010445 189.30161858 C193.22645627 190.83048105 193.22941486 192.35937814 193.23999023 193.88820839 C193.34634299 210.55390592 190.25794086 226.63556172 178.28529358 239.01544189 C176.78536479 240.41321607 175.26610795 241.79072349 173.72279358 243.14044189 C172.87587952 243.89647705 172.87587952 243.89647705 172.01185608 244.66778564 C164.10034773 251.01628868 152.98830345 253.25141137 143.0723114 253.28761292 C142.41708728 253.2912896 141.76186316 253.29496629 141.08678377 253.29875439 C138.8985511 253.30973752 136.71036602 253.31362599 134.52210999 253.31744385 C132.94966991 253.32371287 131.37723131 253.33036005 129.80479431 253.33735657 C124.64465864 253.35835816 119.48452283 253.36875959 114.32435608 253.37872314 C112.5425706 253.38277303 110.76078527 253.38689002 108.97900009 253.39107323 C100.60099976 253.41012125 92.22300818 253.42434959 83.84499037 253.4326852 C74.20408016 253.44243765 64.56340076 253.46870654 54.92257178 253.50918609 C47.45308201 253.53946143 39.98365794 253.55416509 32.51410806 253.55746621 C28.06185358 253.5598049 23.60984575 253.56860918 19.15765762 253.59392738 C14.95997817 253.61741201 10.76270416 253.62136061 6.56497574 253.611166 C5.03610374 253.61067534 3.50721037 253.61685471 1.97840118 253.63072205 C-10.69886664 253.73914619 -24.43407089 252.65642778 -34.77720642 244.51544189 C-35.35269226 244.08231689 -35.9281781 243.64919189 -36.52110291 243.20294189 C-41.58028389 239.22966541 -45.12254408 234.74774313 -48.27720642 229.14044189 C-48.97910095 228.05956299 -48.97910095 228.05956299 -49.69517517 226.95684814 C-59.49688185 210.37155562 -56.71193196 187.17112319 -56.64725137 168.58756423 C-56.63576927 164.50625783 -56.64005683 160.42496115 -56.64199829 156.34364319 C-56.64287556 149.50120897 -56.6319167 142.6588749 -56.61338806 135.81646729 C-56.59218677 127.94274426 -56.58872305 120.06916721 -56.59495002 112.1954214 C-56.60067196 104.56493177 -56.59496755 96.93449272 -56.58377647 89.30401039 C-56.57917212 86.08070234 -56.57823828 82.85742564 -56.58036232 79.63411522 C-56.58226567 75.83274729 -56.57398675 72.031525 -56.55830193 68.23019028 C-56.55213672 66.19580246 -56.5555336 64.16139244 -56.55937195 62.1269989 C-56.4569988 44.12998816 -54.01051304 27.98198354 -40.95298767 14.79278564 C-29.49663106 4.00310828 -15.71560741 0.04353715 0 0 Z " fill="#01525D" transform="translate(59.27720642089844,-0.14044189453125)"/>
<path d="M0 0 C17.40633541 -0.52456257 36.21808983 1.98134993 49.5625 14.15625 C60.05241682 24.27241681 63.56210064 37.75403849 63.91601562 51.95361328 C64.04622899 69.09146788 61.34158331 85.04748785 55.5625 101.15625 C55.19382812 102.20167969 54.82515625 103.24710937 54.4453125 104.32421875 C47.24708061 123.11408613 33.12631116 140.711073 15.078125 149.9375 C-5.21940407 158.97832081 -29.95339027 162.15280127 -51.4375 155.15625 C-65.09535165 149.86829319 -74.22747793 142.57844056 -80.4375 129.15625 C-87.0855214 112.34760015 -84.50848033 90.37777901 -80.4375 73.15625 C-80.27121094 72.4456543 -80.10492187 71.73505859 -79.93359375 71.00292969 C-76.15184215 55.4627319 -69.50307256 41.63102654 -59.4375 29.15625 C-58.87417969 28.44082031 -58.31085937 27.72539063 -57.73046875 26.98828125 C-45.84100863 12.59284592 -29.39758057 4.89523188 -11.4375 1.15625 C-10.72722656 1.00542969 -10.01695312 0.85460938 -9.28515625 0.69921875 C-6.20194437 0.19322118 -3.11946873 0.14179403 0 0 Z M-28.82421875 38.41796875 C-44.32366612 55.11834183 -51.12875775 81.2004028 -50.62890625 103.59375 C-49.98443028 112.22183644 -48.28660012 119.59619709 -42 125.84375 C-35.31319134 131.38950691 -26.44690805 132.77373834 -17.9296875 132.43359375 C-5.36505196 131.03533494 4.74844848 125.25812766 12.7890625 115.52734375 C26.41416779 97.31051796 33.02899128 71.23997571 29.875 48.59375 C28.15655541 40.38340363 25.61023258 35.12038294 18.5625 30.33984375 C3.37330373 21.35092486 -16.58080593 27.10961371 -28.82421875 38.41796875 Z " fill="#FEFEFE" transform="translate(648.4375,41.84375)"/>
<path d="M0 0 C2.50796666 3.76194998 1.98656541 4.70023725 1.12548828 9.03198242 C0.8850882 10.27304245 0.64468811 11.51410248 0.39700317 12.79277039 C0.12170433 14.14705701 -0.15386564 15.50128855 -0.4296875 16.85546875 C-0.70267259 18.24102331 -0.97455982 19.62679458 -1.24539185 21.01277161 C-1.96110154 24.65970159 -2.6917032 28.30349366 -3.42541504 31.94683838 C-4.17150946 35.66525709 -4.90352435 39.38644217 -5.63671875 43.10742188 C-7.07735759 50.40773313 -8.53373542 57.70478753 -10 65 C-9.18813232 64.04955811 -8.37626465 63.09911621 -7.53979492 62.11987305 C-6.45755718 60.85462274 -5.37527968 59.58940645 -4.29296875 58.32421875 C-3.49336731 57.38781555 -3.49336731 57.38781555 -2.6776123 56.43249512 C0.39344073 52.84431107 3.50292776 49.30111002 6.6875 45.8125 C9.6791816 42.52057795 12.52524423 39.15408693 15.3125 35.6875 C19.19890478 30.87866755 23.31966965 26.3595274 27.54467773 21.85205078 C30.79790551 18.36090893 33.87857575 14.78028564 36.875 11.0625 C46.34501117 -0.60074536 46.34501117 -0.60074536 52.4609375 -1.7578125 C60.83830375 -2.55688436 68.98515943 -2.81361523 77 0 C77.99 0.99 77.99 0.99 79 2 C78.45505157 12.60440196 67.17933406 20.96920485 60.02368164 28.00878906 C56.40614432 31.56882715 52.9830118 35.20189514 49.703125 39.078125 C46.76378362 42.39499647 43.55779281 45.44892758 40.40625 48.5625 C37.7564133 51.24675016 35.30787861 54.04909982 32.8671875 56.921875 C29.7741782 60.36430376 26.39522105 63.51933713 23.0390625 66.703125 C20.91062996 69.1006697 20.28111252 69.88060163 20 73 C21.0454561 75.98425838 21.0454561 75.98425838 22.7265625 79.1875 C23.02587173 79.79435638 23.32518097 80.40121277 23.63356018 81.02645874 C24.28177659 82.3377938 24.93533065 83.64650095 25.59359741 84.95281982 C26.98726328 87.71903854 28.3552494 90.49765647 29.72410583 93.2762146 C30.43020988 94.70945492 31.13755022 96.14208678 31.84608459 97.5741272 C35.40918317 104.78792609 38.8136959 112.07115144 42.1875 119.375 C42.97858154 121.08236328 42.97858154 121.08236328 43.78564453 122.82421875 C44.759119 124.93073299 45.72894723 127.03893784 46.69433594 129.14916992 C47.53238047 130.97898406 48.37868813 132.80504906 49.23535156 134.6262207 C49.59983398 135.41343506 49.96431641 136.20064941 50.33984375 137.01171875 C50.65429443 137.68162842 50.96874512 138.35153809 51.29272461 139.04174805 C52.53969124 142.4942573 52.38252563 145.3660065 52 149 C47.72142417 153.27857583 41.30891422 152.21885526 35.625 152.25 C34.22507812 152.2809375 34.22507812 152.2809375 32.796875 152.3125 C23.14979433 152.36715768 23.14979433 152.36715768 19 149 C16.81622175 145.52129372 15.23763083 141.8332228 13.625 138.0625 C12.87875366 136.38039429 12.87875366 136.38039429 12.11743164 134.66430664 C11.01218197 132.16896647 9.91453883 129.67137895 8.82568359 127.16894531 C6.84341524 122.62479001 4.80688447 118.10559855 2.76953125 113.5859375 C1.32411757 110.37042076 -0.11934531 107.1540311 -1.5625 103.9375 C-1.91165466 103.16068878 -2.26080933 102.38387756 -2.62054443 101.58352661 C-9.55908697 86.11488446 -9.55908697 86.11488446 -12 78 C-12.66 78 -13.32 78 -14 78 C-14.04182404 78.55949844 -14.08364807 79.11899689 -14.1267395 79.69544983 C-14.77759069 87.23735727 -16.14716648 94.57579285 -17.6171875 101.99609375 C-17.87769244 103.31981394 -18.13811782 104.64354978 -18.39846802 105.96730042 C-18.94134607 108.72036149 -19.48828752 111.47258078 -20.03759766 114.22436523 C-20.74023581 117.7483044 -21.4276694 121.27503139 -22.11160088 124.80264187 C-22.64255756 127.52795907 -23.18388006 130.25114104 -23.72812271 132.97383308 C-24.11131851 134.90403104 -24.48382968 136.83634026 -24.85617065 138.7686615 C-25.09296539 139.93740311 -25.32976013 141.10614471 -25.57373047 142.31030273 C-25.77723114 143.33937241 -25.98073181 144.36844208 -26.19039917 145.42869568 C-27.05048834 148.16035174 -27.73619263 149.29063634 -30 151 C-34.42230595 152.47410198 -38.74228417 152.22495829 -43.375 152.25 C-44.79425781 152.2809375 -44.79425781 152.2809375 -46.2421875 152.3125 C-51.31506147 152.34099929 -54.87647997 152.33390981 -59 149 C-58.35288801 142.32969314 -57.28112007 135.85775819 -55.94628906 129.29321289 C-55.73959595 128.2607695 -55.53290283 127.22832611 -55.31994629 126.16459656 C-54.63876668 122.76655028 -53.95218006 119.36962014 -53.265625 115.97265625 C-52.7854197 113.5816523 -52.3055882 111.19057325 -51.82611084 108.79942322 C-50.56221312 102.50084172 -49.29387901 96.20316217 -48.02441406 89.90570068 C-46.00626012 79.89016635 -43.99511947 69.87322108 -41.98345184 59.85638237 C-41.2885818 56.39936751 -40.59200398 52.94270066 -39.89508057 49.48609924 C-39.4536903 47.29292298 -39.01242448 45.09972167 -38.57128906 42.90649414 C-38.35848423 41.85086808 -38.1456794 40.79524202 -37.92642593 39.7076273 C-36.79185679 34.05225643 -35.69131043 28.39212477 -34.6307373 22.72238159 C-34.29487925 20.93586134 -34.29487925 20.93586134 -33.95223618 19.11324978 C-33.52465571 16.82916973 -33.10214965 14.54413207 -32.68548965 12.25803471 C-32.49357922 11.23371562 -32.30166878 10.20939653 -32.10394287 9.15403748 C-31.93845821 8.25302527 -31.77297356 7.35201307 -31.60247421 6.42369747 C-30.99724087 3.98890029 -30.36162272 2.10823215 -29 0 C-20.35089577 -3.32657855 -8.58111576 -3.7054818 0 0 Z " fill="#FEFEFE" transform="translate(903,46)"/>
<path d="M0 0 C3.14355486 5.13447294 2.02249729 10.33176353 0.875 16.0625 C-0.20890744 19.22317408 -1.50317461 22.14321431 -3.125 25.0625 C-7.80847904 24.75026806 -11.25370681 23.65557621 -15.5 21.625 C-24.85863659 17.1953307 -34.0938872 15.53712079 -44.23828125 18.3671875 C-48.92720798 20.09519777 -52.51973883 22.81181073 -55.125 27.0625 C-56.87861889 32.32335666 -57.56058032 38.18119391 -55.01953125 43.28125 C-50.01551635 49.50846854 -42.91113085 53.08254697 -36.125 57.0625 C-23.32037425 65.08694111 -13.47278175 72.12584879 -8.48828125 86.95703125 C-6.05826563 101.04067017 -9.00309309 114.72608996 -17.09765625 126.5 C-26.44178343 138.31068869 -39.48517846 145.08878625 -54.125 148.0625 C-55.01445312 148.24425781 -55.90390625 148.42601562 -56.8203125 148.61328125 C-74.76926969 151.05315132 -93.64337775 149.10680509 -109.125 139.0625 C-112.26528375 134.35207437 -111.68114166 129.57811665 -111.125 124.0625 C-108.53804348 114.47554348 -108.53804348 114.47554348 -106.125 112.0625 C-100.72433194 112.4472976 -96.86674113 113.95448942 -92.125 116.5 C-84.67197679 120.4843729 -78.20586544 122.45648093 -69.8125 122.4375 C-68.69536621 122.43508301 -68.69536621 122.43508301 -67.55566406 122.43261719 C-60.04338596 122.26611298 -54.54524008 120.1728609 -48.1875 116.25 C-43.21402799 110.97510544 -42.78058572 105.77573718 -42.62890625 98.80859375 C-43.53163681 93.81158914 -46.05747133 90.86635336 -50.05078125 87.859375 C-51.16839844 87.18390625 -52.28601563 86.5084375 -53.4375 85.8125 C-54.68685883 85.03882667 -55.93553292 84.26404673 -57.18359375 83.48828125 C-58.15208252 82.89394287 -58.15208252 82.89394287 -59.14013672 82.28759766 C-85.37488935 66.09497912 -85.37488935 66.09497912 -89.66699219 51.17895508 C-92.45249123 38.30715807 -90.20396088 25.36100833 -83.3125 14.3125 C-73.53434097 0.67645688 -60.01328888 -5.78466778 -43.6171875 -8.5234375 C-28.25079957 -10.34540296 -13.23713944 -8.20702645 0 0 Z " fill="#FEFEFE" transform="translate(442.125,50.9375)"/>
<path d="M0 0 C2.64576982 3.85841433 2.10563013 7.75464586 1.5546875 12.22265625 C-0.74692443 23.74692443 -0.74692443 23.74692443 -4 27 C-8.41402568 27.52602379 -10.37323624 26.37112584 -13.8125 23.6875 C-23.03455259 16.98424591 -32.04751227 15.36053659 -43.515625 16.1796875 C-54.90135142 18.18652417 -64.1417692 25.38453678 -70.8359375 34.5 C-82.55648431 52.10641093 -89.57924652 73.94527436 -86.5390625 95.2265625 C-84.76274165 103.48123 -81.62952308 109.00169833 -75.125 114.375 C-64.80394183 119.74195025 -53.32844339 118.86031772 -42.3125 116.1328125 C-37.50927022 114.49019854 -33.29475032 112.06493604 -28.97265625 109.42578125 C-25.68553854 107.8491742 -23.60003421 107.63842451 -20 108 C-19 109 -19 109 -18.75 112.25 C-18.86487697 120.20522986 -20.31045541 130.16456966 -26 136 C-41.87919088 146.54453147 -64.18423633 148.42565273 -82.5625 144.75 C-94.35597674 141.82880472 -106.03932949 136.36366499 -113 126 C-124.22750187 107.28749689 -124.70456717 84.11176957 -119.59082031 63.2265625 C-113.77465727 41.30779929 -104.66176283 19.09444803 -86 5 C-85.25363281 4.41863281 -84.50726562 3.83726563 -83.73828125 3.23828125 C-61.45222955 -13.30579255 -22.64853118 -20.13202771 0 0 Z " fill="#FEFEFE" transform="translate(847,54)"/>
<path d="M0 0 C0.81318915 -0.00020928 1.62637831 -0.00041857 2.46420956 -0.00063419 C3.86701672 -0.0153854 3.86701672 -0.0153854 5.29816341 -0.03043461 C6.8341695 -0.01593266 6.8341695 -0.01593266 8.40120602 -0.00113773 C9.48107784 -0.00654072 10.56094967 -0.0119437 11.67354488 -0.01751041 C15.25158039 -0.03004249 18.82881838 -0.01347723 22.40682125 0.0044775 C24.88639016 0.00432263 27.36595932 0.00283563 29.8455267 0.00006771 C35.71158906 -0.00149594 41.57735797 0.01690527 47.44335645 0.04286951 C52.12647907 0.06197673 56.80936571 0.06346537 61.49251461 0.05452633 C67.94100621 0.04222763 74.38928916 0.04451586 80.83777332 0.06018543 C83.30064582 0.0647138 85.76352967 0.06502472 88.22640324 0.06112003 C91.66251482 0.05822249 95.09798749 0.07464493 98.53401852 0.09651852 C100.07306095 0.08976604 100.07306095 0.08976604 101.64319515 0.08287716 C102.5755801 0.09278179 103.50796505 0.10268642 104.46860409 0.1128912 C105.28141622 0.11532109 106.09422834 0.11775099 106.93167114 0.12025452 C107.58218162 0.24575904 108.23269209 0.37126356 108.902915 0.50057125 C112.08194449 5.26911548 110.83903654 10.01662522 109.902915 15.50057125 C108.85693084 18.98109497 107.67085366 22.31828166 105.902915 25.50057125 C102.57592863 27.16406444 98.83862115 26.74435182 95.1763525 26.8169775 C94.31353664 26.8377586 93.45072079 26.8585397 92.561759 26.87995052 C89.80056007 26.94543159 87.03926462 27.00432423 84.277915 27.06307125 C82.40811328 27.10625785 80.53832138 27.14987218 78.66854 27.19393063 C74.08009772 27.30111149 69.49155817 27.402383 64.902915 27.50057125 C64.72014602 28.42271231 64.72014602 28.42271231 64.53368473 29.36348248 C61.56871894 44.32080851 58.59736914 59.27685081 55.61890507 74.23149395 C54.17869771 81.46347047 52.7406556 88.69586496 51.30770016 95.92928219 C50.05875443 102.23380778 48.8057565 108.53751202 47.54788291 114.84026265 C46.88197193 118.17764045 46.2180992 121.51539468 45.55907726 124.85414028 C44.82242806 128.58079669 44.07862566 132.30595729 43.33309078 136.03084469 C43.11586361 137.13855221 42.89863644 138.24625973 42.67482662 139.38753414 C42.4701376 140.40273129 42.26544857 141.41792843 42.05455685 142.46388912 C41.87941618 143.34512321 41.70427551 144.22635731 41.52382755 145.13429546 C40.64169947 148.49605442 39.9188245 150.87356461 36.902915 152.73494625 C32.55640618 153.84421152 28.37032608 153.7894183 23.902915 153.75057125 C23.01346188 153.75830563 22.12400875 153.76604 21.2076025 153.77400875 C12.61927885 153.74837196 12.61927885 153.74837196 8.902915 151.50057125 C7.8319493 148.28767413 7.95909182 147.21968717 8.60440731 143.9931097 C8.78525372 143.06946621 8.96610012 142.14582272 9.15242672 141.19419003 C9.35859615 140.18275433 9.56476559 139.17131863 9.77718258 138.12923336 C9.98840252 137.06221188 10.19962246 135.99519039 10.417243 134.89583492 C11.12004454 131.35503828 11.83371399 127.81652309 12.54744625 124.277915 C13.0379966 121.81764444 13.52787086 119.35723899 14.01709652 116.89670467 C15.17782084 111.06748362 16.34537833 105.23965773 17.51622933 99.41246468 C18.97041288 92.17303239 20.41408788 84.93151237 21.85799313 77.69002438 C24.17200652 66.09095235 26.49344119 54.49338534 28.82047176 42.8969183 C29.85021507 37.76525448 30.877132 32.63302804 31.902915 27.50057125 C30.19192623 27.47084225 30.19192623 27.47084225 28.44637203 27.44051266 C24.22316177 27.36456558 20.00030101 27.27583197 15.77742672 27.18318844 C13.94806971 27.14485348 12.11863616 27.11000862 10.28914547 27.07869625 C7.66272741 27.0331432 5.03683841 26.97513394 2.4107275 26.91463375 C1.58984646 26.90308254 0.76896542 26.89153133 -0.07679081 26.87963009 C-5.86934159 26.72831466 -5.86934159 26.72831466 -8.097085 24.50057125 C-8.77536914 17.17510248 -7.62992128 8.75343256 -3.82283974 2.36099815 C-2.097085 0.50057125 -2.097085 0.50057125 0 0 Z " fill="#FEFEFE" transform="translate(465.0970849990845,44.49942874908447)"/>
<path d="M0 0 C-0.18388718 9.98005894 -1.67703581 19.57019965 -3.5 29.375 C-3.72582764 30.59421143 -3.95165527 31.81342285 -4.18432617 33.06958008 C-5.86324712 41.86324712 -5.86324712 41.86324712 -7 43 C-9.125 43.4375 -9.125 43.4375 -12 43 C-15.70848074 40.43008791 -18.83351981 37.19526637 -22 34 C-22.66 35.65 -23.32 37.3 -24 39 C-24.66 39 -25.32 39 -26 39 C-26.27674561 39.59135742 -26.55349121 40.18271484 -26.83862305 40.79199219 C-27.93444912 42.87537478 -29.08909597 44.51731148 -30.58203125 46.328125 C-31.09499756 46.95452881 -31.60796387 47.58093262 -32.13647461 48.22631836 C-32.68956299 48.8941333 -33.24265137 49.56194824 -33.8125 50.25 C-34.99751532 51.69391236 -36.18240781 53.13792554 -37.3671875 54.58203125 C-38.27549316 55.68538818 -38.27549316 55.68538818 -39.20214844 56.81103516 C-41.42983828 59.52334736 -43.64032192 62.24930401 -45.84936523 64.97680664 C-51.53913348 72.00133066 -57.25810338 79.00186505 -63.03076172 85.95849609 C-65.64095866 89.10766742 -68.22528837 92.26387915 -70.70703125 95.515625 C-71.48433594 96.52109375 -72.26164062 97.5265625 -73.0625 98.5625 C-73.71347656 99.43003906 -74.36445313 100.29757813 -75.03515625 101.19140625 C-77 103 -77 103 -79.37084961 103.33447266 C-82.72431676 102.90785459 -83.70786497 101.87340891 -86.03125 99.45703125 C-86.75957031 98.71259766 -87.48789063 97.96816406 -88.23828125 97.20117188 C-88.98464844 96.41291016 -89.73101562 95.62464844 -90.5 94.8125 C-91.24636719 94.04357422 -91.99273437 93.27464844 -92.76171875 92.48242188 C-94.20870389 90.99061861 -95.65133682 89.4945788 -97.08911133 87.99389648 C-101.0894334 83.81980291 -105.15234602 79.96217667 -109.64453125 76.33203125 C-110.31548828 75.67267578 -110.31548828 75.67267578 -111 75 C-111 74.34 -111 73.68 -111 73 C-115.47562169 75.30267493 -118.35392346 78.41981017 -121.5 82.25 C-122.56193344 83.51610042 -123.62445352 84.78170897 -124.6875 86.046875 C-125.23277344 86.69978516 -125.77804688 87.35269531 -126.33984375 88.02539062 C-129.02246263 91.21612909 -131.76228004 94.35655487 -134.5 97.5 C-138.77278716 102.41830238 -143.01992253 107.35744045 -147.25 112.3125 C-151.45363613 117.23423159 -155.73565476 122.07396688 -160.0859375 126.8671875 C-162.46679068 129.52013819 -164.74693653 132.23818026 -167 135 C-171.40081711 134.49704947 -173.9419884 133.22790113 -177 130 C-178.05850596 126.00590416 -178.51877637 123.93486436 -176.48046875 120.26171875 C-175.72378906 119.41222656 -174.96710938 118.56273437 -174.1875 117.6875 C-172.94033203 116.27017578 -172.94033203 116.27017578 -171.66796875 114.82421875 C-168.34282789 111.30434051 -164.92028338 107.8990787 -161.45703125 104.515625 C-158.21234433 101.19356081 -155.37467156 97.61109286 -152.48046875 93.984375 C-149.60998044 90.53074812 -146.57918307 87.26678129 -143.5 84 C-138.77167477 78.97713681 -134.31243862 73.84928253 -129.9921875 68.46875 C-127.09904447 64.88352177 -124.08614564 61.41957344 -121 58 C-119.700625 56.5459375 -119.700625 56.5459375 -118.375 55.0625 C-115.71000889 52.74816562 -114.4911976 52.18660972 -111 52 C-108.859375 53.4753418 -108.859375 53.4753418 -106.75 55.69921875 C-105.9765625 56.49650391 -105.203125 57.29378906 -104.40625 58.11523438 C-103.6121875 58.96408203 -102.818125 59.81292969 -102 60.6875 C-100.41880244 62.33928674 -98.8355293 63.98908955 -97.25 65.63671875 C-96.55390625 66.37623779 -95.8578125 67.11575684 -95.140625 67.87768555 C-92.88640217 70.11262614 -90.48932561 72.03376779 -88 74 C-87.154375 74.86625 -86.30875 75.7325 -85.4375 76.625 C-83.25448355 78.75204167 -81.70395719 79.75377872 -79 81 C-78.61070312 80.48953125 -78.22140625 79.9790625 -77.8203125 79.453125 C-73.52597569 73.87246611 -69.06791752 68.44444617 -64.546875 63.046875 C-58.64154553 55.98221705 -52.84310172 48.83398524 -47.125 41.6171875 C-45.54780194 39.67468254 -43.95090937 37.7723058 -42.3125 35.8828125 C-41.85609131 35.35163818 -41.39968262 34.82046387 -40.92944336 34.27319336 C-39.62788367 32.76334693 -38.31615208 31.26228689 -37.00390625 29.76171875 C-35.01183476 27.01631029 -34.33385598 25.3324897 -34 22 C-34.94875 21.236875 -35.8975 20.47375 -36.875 19.6875 C-39.16609895 17.84465954 -40.31224944 16.53162583 -42 14 C-41.8125 11.4375 -41.8125 11.4375 -41 9 C-37.68408915 6.78939277 -35.9032794 6.58476128 -32 6.125 C-26.42315604 5.34784783 -21.5906372 3.92025853 -16.359375 1.88671875 C-10.92519977 -0.15559545 -5.71758958 -0.09857913 0 0 Z " fill="#F3F0E2" transform="translate(217,37)"/>
<path d="M0 0 C0.87140625 -0.00064453 1.7428125 -0.00128906 2.640625 -0.00195312 C3.54296875 0.01802734 4.4453125 0.03800781 5.375 0.05859375 C6.27734375 0.05150391 7.1796875 0.04441406 8.109375 0.03710938 C15.77883101 0.11085414 15.77883101 0.11085414 19.375 3.49609375 C19.87557125 5.73373508 19.87557125 5.73373508 19.87620544 8.39906311 C19.88603958 9.40999527 19.89587372 10.42092743 19.90600586 11.4624939 C19.89633789 12.5706546 19.88666992 13.67881531 19.87670898 14.82055664 C19.88211197 15.9882106 19.88751495 17.15586456 19.89308167 18.35890198 C19.90561718 22.22910697 19.88904588 26.09857514 19.87109375 29.96875 C19.87124861 32.65011105 19.87268134 35.33144534 19.87550354 38.01280212 C19.87820618 43.63598283 19.86472441 49.25895014 19.84155273 54.88208008 C19.81492952 61.3879402 19.81319967 67.89344379 19.8249411 74.39933974 C19.83571016 80.65337768 19.82953959 86.90728635 19.81538582 93.16131401 C19.81085685 95.82514507 19.81054704 98.48898663 19.81445122 101.15281868 C19.81734818 104.86910945 19.80092879 108.58480914 19.77905273 112.30102539 C19.78355438 113.41121033 19.78805603 114.52139526 19.79269409 115.66522217 C19.78278946 116.6733345 19.77288483 117.68144684 19.76268005 118.72010803 C19.76025016 119.59928926 19.75782026 120.47847048 19.75531673 121.38429356 C19.62981221 122.08118762 19.50430769 122.77808168 19.375 123.49609375 C14.79028877 126.55256791 10.20419443 125.82494213 4.8125 125.80859375 C3.21245117 125.83276367 3.21245117 125.83276367 1.58007812 125.85742188 C0.56236328 125.85806641 -0.45535156 125.85871094 -1.50390625 125.859375 C-2.4379126 125.86235596 -3.37191895 125.86533691 -4.33422852 125.8684082 C-5.09018311 125.74554443 -5.8461377 125.62268066 -6.625 125.49609375 C-8.7768978 122.26824705 -8.87796437 121.40260332 -8.89242554 117.68251038 C-8.90095551 116.69129684 -8.90948547 115.70008331 -8.91827393 114.67883301 C-8.91736755 113.59251587 -8.91646118 112.50619873 -8.91552734 111.38696289 C-8.92224457 110.24202866 -8.92896179 109.09709442 -8.93588257 107.91746521 C-8.95492471 104.12201635 -8.9587898 100.3267437 -8.9609375 96.53125 C-8.96736063 93.89953029 -8.97408862 91.26781132 -8.98110962 88.63609314 C-8.9939018 83.115538 -8.99687432 77.59503084 -8.99560547 72.07446289 C-8.99440362 65.69357647 -9.0155134 59.31302806 -9.0470928 52.93222719 C-9.07639141 46.79354079 -9.08358177 40.65501666 -9.08238602 34.51626396 C-9.08475091 31.90430762 -9.09362398 29.29234894 -9.10905075 26.68043709 C-9.12858536 23.03154341 -9.12292142 19.3835261 -9.11083984 15.73461914 C-9.12207886 14.65032623 -9.13331787 13.56603333 -9.14489746 12.44888306 C-9.08324318 5.14329542 -9.08324318 5.14329542 -6.73379517 1.82504272 C-4.27933976 0.27826092 -2.88782022 -0.00676098 0 0 Z " fill="#54A481" transform="translate(196.625,97.50390625)"/>
<path d="M0 0 C0.81082031 -0.020625 1.62164062 -0.04125 2.45703125 -0.0625 C3.23691406 -0.06765625 4.01679688 -0.0728125 4.8203125 -0.078125 C5.52687988 -0.0874707 6.23344727 -0.09681641 6.96142578 -0.10644531 C9.61863497 0.38851838 10.29220914 1.03902755 11.875 3.25 C12.15545556 5.89148731 12.25419802 8.29430104 12.21557617 10.93432617 C12.21623329 12.10541176 12.21623329 12.10541176 12.21690369 13.30015564 C12.21481324 15.88134753 12.1914706 18.4618903 12.16796875 21.04296875 C12.16237369 22.83229721 12.15810317 24.62163027 12.15510559 26.41096497 C12.14364968 31.12109052 12.11417611 35.83093866 12.08099365 40.54095459 C12.05030883 45.34692634 12.03660365 50.15294291 12.02148438 54.95898438 C11.9893071 64.38944482 11.93810175 73.81969934 11.875 83.25 C6.01372147 85.83024081 1.92735302 86.74432449 -4.375 86.6875 C-5.17679688 86.70748047 -5.97859375 86.72746094 -6.8046875 86.74804688 C-7.57554687 86.74740234 -8.34640625 86.74675781 -9.140625 86.74609375 C-10.18138184 86.74887329 -10.18138184 86.74887329 -11.24316406 86.75170898 C-13.125 86.25 -13.125 86.25 -14.71934509 84.69155884 C-16.6247869 81.38189282 -16.53727758 78.39676087 -16.49731445 74.68334961 C-16.50096512 73.92680588 -16.50461578 73.17026215 -16.50837708 72.39079285 C-16.51647173 69.89441359 -16.50288312 67.39868559 -16.48828125 64.90234375 C-16.48776256 63.16646831 -16.48828059 61.43059227 -16.48979187 59.69471741 C-16.4897022 56.05900286 -16.47928224 52.42351029 -16.46118164 48.7878418 C-16.43847774 44.12478557 -16.43795396 39.46205318 -16.44469929 34.79895687 C-16.44803839 31.21563329 -16.44141056 27.63238372 -16.43157005 24.04907417 C-16.42771803 22.32945709 -16.42656985 20.60983177 -16.4281559 18.89021111 C-16.42852621 16.48906598 -16.41591669 14.08833835 -16.3996582 11.68725586 C-16.40213562 10.97496826 -16.40461304 10.26268066 -16.40716553 9.52880859 C-16.36764655 5.87719316 -16.20976288 4.37714432 -14.125 1.25 C-9.61628985 -0.22433107 -4.70247464 0.03019245 0 0 Z " fill="#55A482" transform="translate(164.125,137.75)"/>
<path d="M0 0 C1.44439453 -0.04350586 1.44439453 -0.04350586 2.91796875 -0.08789062 C3.84222656 -0.09626953 4.76648438 -0.10464844 5.71875 -0.11328125 C6.56373047 -0.12786377 7.40871094 -0.14244629 8.27929688 -0.1574707 C10.5 0.3125 10.5 0.3125 12.11453247 1.95501709 C13.89122519 4.9782007 13.88060138 7.00377363 13.88818359 10.50219727 C13.89764008 11.75351944 13.90709656 13.00484161 13.9168396 14.29408264 C13.91147031 15.65569374 13.90531747 17.01730195 13.8984375 18.37890625 C13.90045906 19.77847953 13.90337118 21.17805178 13.90713501 22.57762146 C13.9115531 25.50717218 13.90514325 28.43644807 13.89111328 31.3659668 C13.87400544 35.12113804 13.88387529 38.87566677 13.90183067 42.63081455 C13.91266917 45.51931097 13.90922224 48.40765493 13.9014473 51.29615593 C13.89944627 52.68084731 13.90190118 54.06555253 13.90888596 55.45022774 C13.9165023 57.38421489 13.90283571 59.31825061 13.88818359 61.25219727 C13.88579681 62.35265884 13.88341003 63.45312042 13.88095093 64.58692932 C13.5 67.3125 13.5 67.3125 12.1269989 69.16799927 C9.80382798 70.80221722 8.06589823 70.68477003 5.24609375 70.67578125 C4.22708984 70.67513672 3.20808594 70.67449219 2.15820312 70.67382812 C1.09537109 70.65771484 0.03253906 70.64160156 -1.0625 70.625 C-2.12919922 70.62822266 -3.19589844 70.63144531 -4.29492188 70.63476562 C-12.23303472 70.57946528 -12.23303472 70.57946528 -14.5 68.3125 C-14.74723816 65.61779785 -14.74723816 65.61779785 -14.74291992 62.15039062 C-14.74599655 60.85564819 -14.74907318 59.56090576 -14.75224304 58.22692871 C-14.74534509 56.80753401 -14.7380781 55.38814106 -14.73046875 53.96875 C-14.72927695 52.51908407 -14.72882379 51.06941737 -14.7290802 49.61975098 C-14.72751488 46.57994765 -14.71922169 43.54026201 -14.70581055 40.50048828 C-14.68882062 36.59962036 -14.68499619 32.69888185 -14.68575573 28.79798126 C-14.68548408 25.80404418 -14.68000375 22.81013552 -14.67275429 19.81620789 C-14.66956709 18.3776623 -14.66760009 16.9391135 -14.66686058 15.50056458 C-14.6646976 13.49190111 -14.65516126 11.48324962 -14.64526367 9.47460938 C-14.64145187 8.33036499 -14.63764008 7.18612061 -14.63371277 6.00720215 C-14.5 3.3125 -14.5 3.3125 -13.5 1.3125 C-9.04353533 -0.17298822 -4.66881663 0.04687567 0 0 Z " fill="#55A582" transform="translate(122.5,152.6875)"/>
<path d="M0 0 C0.91523437 -0.01611328 1.83046875 -0.03222656 2.7734375 -0.04882812 C3.65257813 -0.04947266 4.53171875 -0.05011719 5.4375 -0.05078125 C6.24058594 -0.05376221 7.04367188 -0.05674316 7.87109375 -0.05981445 C10.57263095 0.41264475 11.31000904 1.18122569 13 3.3125 C13.3742218 5.3614502 13.3742218 5.3614502 13.37231445 7.73632812 C13.38165764 9.07286438 13.38165764 9.07286438 13.39118958 10.43640137 C13.38197983 11.39582642 13.37277008 12.35525146 13.36328125 13.34375 C13.36377975 14.33121216 13.36427826 15.31867432 13.36479187 16.33605957 C13.36245107 18.42409273 13.35272223 20.5121287 13.33618164 22.60009766 C13.3125917 25.80006078 13.31562044 28.9991908 13.32226562 32.19921875 C13.31668883 34.22656748 13.30957895 36.25391269 13.30078125 38.28125 C13.30214836 39.72038757 13.30214836 39.72038757 13.30354309 41.18859863 C13.29401108 42.0796228 13.28447906 42.97064697 13.2746582 43.88867188 C13.27005081 44.67238159 13.26544342 45.45609131 13.26069641 46.2635498 C13 48.3125 13 48.3125 11 51.3125 C8.89282227 51.70068359 8.89282227 51.70068359 6.31640625 51.7109375 C5.38892578 51.71480469 4.46144531 51.71867187 3.50585938 51.72265625 C2.53455078 51.71105469 1.56324219 51.69945312 0.5625 51.6875 C-0.88866211 51.70490234 -0.88866211 51.70490234 -2.36914062 51.72265625 C-3.29791016 51.71878906 -4.22667969 51.71492188 -5.18359375 51.7109375 C-6.03493896 51.70755371 -6.88628418 51.70416992 -7.76342773 51.70068359 C-10.54300441 51.21825516 -11.27099891 50.50917156 -13 48.3125 C-13.38095093 46.21885681 -13.38095093 46.21885681 -13.38818359 43.78100586 C-13.39764008 42.86673325 -13.40709656 41.95246063 -13.4168396 41.01048279 C-13.41076691 40.02604691 -13.40469421 39.04161102 -13.3984375 38.02734375 C-13.40130768 37.01531387 -13.40417786 36.003284 -13.40713501 34.96058655 C-13.4091767 32.82129354 -13.40363952 30.68198192 -13.39111328 28.54272461 C-13.37504493 25.25918086 -13.39096741 21.976865 -13.41015625 18.69335938 C-13.40817416 16.61718477 -13.40433121 14.54101093 -13.3984375 12.46484375 C-13.40451019 11.47838364 -13.41058289 10.49192352 -13.4168396 9.47557068 C-13.40738312 8.56445023 -13.39792664 7.65332977 -13.38818359 6.71459961 C-13.38460342 5.50905678 -13.38460342 5.50905678 -13.38095093 4.27915955 C-13.25523712 3.6301619 -13.12952332 2.98116425 -13 2.3125 C-8.72800275 -0.53549817 -5.02201715 -0.01768316 0 0 Z " fill="#55A582" transform="translate(82,171.6875)"/>
<path d="M0 0 C2.79224073 -0.08071788 5.58216566 -0.14035408 8.375 -0.1875 C9.1690625 -0.21263672 9.963125 -0.23777344 10.78125 -0.26367188 C12.85586148 -0.29004405 14.93100865 -0.15486462 17 0 C20.11496916 4.67245375 19.32850857 9.50585754 19.3125 15 C19.32861328 16.10601562 19.34472656 17.21203125 19.36132812 18.3515625 C19.36197266 19.41117188 19.36261719 20.47078125 19.36328125 21.5625 C19.36626221 22.53316406 19.36924316 23.50382812 19.37231445 24.50390625 C19 27 19 27 17.69628906 28.81494141 C14.87866529 30.78338496 11.74536356 30.43133069 8.4375 30.375 C7.75236328 30.38660156 7.06722656 30.39820313 6.36132812 30.41015625 C4.37109375 30.3984375 4.37109375 30.3984375 1 30 C-1.28161795 26.57757307 -1.24667895 25.32840656 -1.23046875 21.30859375 C-1.22853516 20.19935547 -1.22660156 19.09011719 -1.22460938 17.94726562 C-1.21236328 16.78904297 -1.20011719 15.63082031 -1.1875 14.4375 C-1.18685547 13.27541016 -1.18621094 12.11332031 -1.18554688 10.91601562 C-1.14033565 2.2806713 -1.14033565 2.2806713 0 0 Z " fill="#55A582" transform="translate(38,194)"/>
<path d="M0 0 C10.06923163 2.88319569 18.35852636 10.77281167 23.58984375 19.71875 C29.9006347 31.69228001 31.44800933 42.59027627 31.40405273 55.97363281 C31.40976661 57.55681334 31.41673478 59.13998975 31.42485046 60.72315979 C31.44268847 64.99410068 31.44163078 69.26483504 31.43590808 73.53580189 C31.43280141 77.11631275 31.43892529 80.69678479 31.44494683 84.27729011 C31.45896088 92.73388428 31.45745792 101.19037737 31.44604492 109.64697266 C31.43457756 118.33514983 31.44862323 127.0230178 31.4754414 135.71115422 C31.49768758 143.20201626 31.50421547 150.69278189 31.49836498 158.18367457 C31.49501414 162.64363561 31.49728408 167.10339874 31.51461601 171.5633316 C31.5302252 175.76276999 31.52597708 179.96175529 31.50731087 184.16117668 C31.50366269 185.69003915 31.50662128 187.21893625 31.51719666 188.74776649 C31.62354941 205.41346403 28.53514728 221.49511982 16.5625 233.875 C9.72155518 240.28123596 2.8254506 246 -7 246 C-7 245.34 -7 244.68 -7 244 C-5.76636719 243.5978125 -5.76636719 243.5978125 -4.5078125 243.1875 C3.17398054 240.49088905 13.10384263 236.79231473 17 229 C17.66 229 18.32 229 19 229 C19.2784375 228.278125 19.556875 227.55625 19.84375 226.8125 C20.9459597 224.13144938 22.20423831 221.59152337 23.5 219 C28.41058559 208.11472668 28.29295618 196.43411863 28.24291992 184.68554688 C28.24399588 183.19735125 28.24593919 181.70915603 28.24867249 180.22096252 C28.25347395 176.21887864 28.24592419 172.2169082 28.23571944 168.21483803 C28.22685794 164.00223571 28.22869796 159.78963611 28.2290802 155.57702637 C28.22814698 148.50624727 28.21951005 141.43551138 28.20581055 134.36474609 C28.19008878 126.22077266 28.18481269 118.07684646 28.1855461 109.93285894 C28.18622463 101.21764009 28.17926696 92.50243914 28.1700995 83.78722572 C28.16798089 81.29552262 28.16726006 78.80382245 28.16686058 76.31211853 C28.16584663 72.37873075 28.15966541 68.4453817 28.14969444 64.51200676 C28.14680529 63.07905757 28.14553667 61.64610392 28.14612198 60.21315193 C28.86949093 43.40213273 28.86949093 43.40213273 24.02734375 27.7578125 C23 26 23 26 21.6875 22.5 C17.17020467 13.13079486 8.96494107 6.84106818 0 2 C0 1.34 0 0.68 0 0 Z " fill="#002229" transform="translate(221,5)"/>
<path d="M0 0 C1.44539653 -0.00435866 2.89079075 -0.00954561 4.33618164 -0.01548767 C8.22687648 -0.02876584 12.11747353 -0.02946888 16.00818658 -0.02692437 C19.27310392 -0.02584688 22.53800209 -0.03075783 25.80291528 -0.03552979 C33.51494668 -0.04658662 41.22692937 -0.04708421 48.93896484 -0.04101562 C56.85628913 -0.03498063 64.77343549 -0.04728361 72.69072944 -0.06858569 C79.52343246 -0.08628372 86.35607927 -0.09219015 93.18880433 -0.08894795 C97.25413149 -0.08714775 101.31933174 -0.08964325 105.38463783 -0.10366249 C109.21221396 -0.11637052 113.0395157 -0.1141763 116.86708832 -0.1012516 C118.25888607 -0.09891407 119.65070394 -0.10151691 121.04247856 -0.10987473 C143.93015744 -0.23723554 143.93015744 -0.23723554 152.19799805 5.2746582 C150.84431763 5.32991046 149.4899357 5.3680019 148.13549805 5.3996582 C147.38139648 5.42286133 146.62729492 5.44606445 145.8503418 5.4699707 C143.19799805 5.2746582 143.19799805 5.2746582 139.94576454 4.27790356 C136.2933576 3.30018515 133.34623623 3.02558115 129.58139038 3.02742004 C128.29162796 3.02322556 127.00186554 3.01903107 125.67301941 3.01470947 C124.26126022 3.0201917 122.8495018 3.02587464 121.43774414 3.03173828 C119.93745338 3.03066428 118.43716303 3.02872385 116.93687439 3.02598572 C112.87712401 3.02115389 108.81748419 3.02877175 104.75774717 3.03893876 C100.50399629 3.04774491 96.25024862 3.04596133 91.99649048 3.045578 C84.85628416 3.04651338 77.71612044 3.05518114 70.57592773 3.06884766 C62.3239934 3.08458383 54.07210566 3.08984526 45.82015741 3.0891121 C37.02713101 3.08843642 28.23412254 3.09537755 19.44110155 3.10455871 C16.90995624 3.10668859 14.37881382 3.10739968 11.84766769 3.10779762 C7.87006237 3.10880296 3.89249608 3.11491518 -0.08509636 3.12496376 C-1.54397658 3.12788145 -3.00286129 3.12911561 -4.46174431 3.12853622 C-6.45428763 3.12804439 -8.44682918 3.13432759 -10.43936157 3.14094543 C-11.55393549 3.14262128 -12.66850941 3.14429712 -13.81685829 3.14602375 C-16.59616278 3.26578828 -19.09307816 3.67331101 -21.80200195 4.2746582 C-23.23828652 4.33732332 -24.67705745 4.36152167 -26.11450195 4.3371582 C-27.93981445 4.3062207 -27.93981445 4.3062207 -29.80200195 4.2746582 C-21.55965766 -1.22023799 -9.545527 -0.01927107 0 0 Z " fill="#002C34" transform="translate(67.802001953125,-0.274658203125)"/>
<path d="M0 0 C0.66 0.33 1.32 0.66 2 1 C-0.12697376 17.28814114 -6.00367341 29.8030723 -18.71875 40.4375 C-23.9437892 44.42752994 -29.31357413 47 -36 47 C-36 46.34 -36 45.68 -36 45 C-35.17757812 44.731875 -34.35515625 44.46375 -33.5078125 44.1875 C-25.82601946 41.49088905 -15.89615737 37.79231473 -12 30 C-11.34 30 -10.68 30 -10 30 C-9.7215625 29.278125 -9.443125 28.55625 -9.15625 27.8125 C-8.0540403 25.13144938 -6.79576169 22.59152337 -5.5 20 C-2.99518601 14.59254862 -2.05261442 9.4472226 -1.359375 3.5546875 C-1 1 -1 1 0 0 Z " fill="#01252B" transform="translate(250,204)"/>
<path d="M0 0 C-0.85722656 0.43570312 -1.71445312 0.87140625 -2.59765625 1.3203125 C-13.3296641 6.4157198 -13.3296641 6.4157198 -21 15 C-21.66 15 -22.32 15 -23 15 C-23.2475 15.66 -23.495 16.32 -23.75 17 C-24.71473093 19.31535424 -25.74415893 21.37242194 -26.9375 23.5625 C-29.28252528 28.22267763 -30.29418083 32.89968626 -31.25 38 C-31.42273438 38.87011719 -31.59546875 39.74023438 -31.7734375 40.63671875 C-32.19259647 42.7558002 -32.59777827 44.87763855 -33 47 C-33.66 46.67 -34.32 46.34 -35 46 C-33.26784311 28.52331259 -27.7505763 16.49937214 -14.53125 4.9921875 C-5.76718379 -1.9054572 -5.76718379 -1.9054572 0 0 Z " fill="#01282F" transform="translate(38,5)"/>
<path d="M0 0 C0.33 0 0.66 0 1 0 C1.15855469 0.98097656 1.31710938 1.96195313 1.48046875 2.97265625 C4.68937187 22.08612302 4.68937187 22.08612302 14.7421875 38.265625 C15.36480469 39.12414062 15.36480469 39.12414062 16 40 C15.67 40.99 15.34 41.98 15 43 C5.33828648 30.38942602 -0.3102374 19.09922238 -1 3 C-0.67 2.01 -0.34 1.02 0 0 Z " fill="#012731" transform="translate(4,197)"/>
<path d="M0 0 C2.20927044 0.2844814 4.41738979 0.5779096 6.625 0.875 C8.46964844 1.11863281 8.46964844 1.11863281 10.3515625 1.3671875 C13.73961517 1.95483689 16.77698651 2.81988122 20 4 C20 4.33 20 4.66 20 5 C12.78528371 5.35482211 6.87581298 4.1591338 0 2 C0 1.34 0 0.68 0 0 Z " fill="#012B32" transform="translate(200,0)"/>
<path d="M0 0 C1.67542976 0.28604898 3.34385343 0.61781233 5 1 C4.15695313 1.35191406 4.15695313 1.35191406 3.296875 1.7109375 C0.45364109 3.30663 -1.48098127 5.28924543 -3.75 7.625 C-4.54921875 8.44226563 -5.3484375 9.25953125 -6.171875 10.1015625 C-6.77515625 10.72804688 -7.3784375 11.35453125 -8 12 C-8.66 11.67 -9.32 11.34 -10 11 C-7.22169429 7.3984926 -4.2594334 4.17134061 -1 1 C-0.67 0.67 -0.34 0.34 0 0 Z " fill="#CBD0CA" transform="translate(102,89)"/>
<path d="M0 0 C4.72224516 1.53472968 9.35855331 3.23945126 14 5 C14 5.66 14 6.32 14 7 C14.99 7.33 15.98 7.66 17 8 C11.38854855 7.53237905 6.729037 6.15269133 2 3 C1.34 2.01 0.68 1.02 0 0 Z " fill="#02232B" transform="translate(25,243)"/>
<path d="M0 0 C0.66 0 1.32 0 2 0 C0.63491499 3.11728368 -0.86919698 5.08663738 -3.4375 7.3125 C-4.03433594 7.84488281 -4.63117188 8.37726563 -5.24609375 8.92578125 C-5.82488281 9.28027344 -6.40367187 9.63476562 -7 10 C-7.99 9.67 -8.98 9.34 -10 9 C-9.36191406 8.51789063 -8.72382813 8.03578125 -8.06640625 7.5390625 C-7.24011719 6.90742188 -6.41382813 6.27578125 -5.5625 5.625 C-4.73878906 4.99851563 -3.91507813 4.37203125 -3.06640625 3.7265625 C-0.91471908 2.16246096 -0.91471908 2.16246096 0 0 Z " fill="#013038" transform="translate(238,234)"/>
<path d="M0 0 C0.66 0 1.32 0 2 0 C1.03644647 9.41002278 1.03644647 9.41002278 0 14 C-0.66 13.67 -1.32 13.34 -2 13 C-1.34 8.71 -0.68 4.42 0 0 Z " fill="#012B33" transform="translate(5,38)"/>
<path d="M0 0 C0 0.66 0 1.32 0 2 C-1.53125 3.5078125 -1.53125 3.5078125 -3.5 5.125 C-4.1496875 5.66382812 -4.799375 6.20265625 -5.46875 6.7578125 C-5.9740625 7.16773437 -6.479375 7.57765625 -7 8 C-7.66 7.67 -8.32 7.34 -9 7 C-8.07347299 5.82460004 -7.13336613 4.65989423 -6.1875 3.5 C-5.66542969 2.8503125 -5.14335938 2.200625 -4.60546875 1.53125 C-3 0 -3 0 0 0 Z " fill="#316069" transform="translate(106,110)"/>
<path d="M0 0 C0.99 0.33 1.98 0.66 3 1 C3.33 1.99 3.66 2.98 4 4 C3.4225 4.12375 2.845 4.2475 2.25 4.375 C-0.02335767 5.00648824 -1.9253529 5.88858191 -4 7 C-4 6.34 -4 5.68 -4 5 C-3.34 5 -2.68 5 -2 5 C-1.34 3.35 -0.68 1.7 0 0 Z " fill="#34626A" transform="translate(195,71)"/>
<path d="M0 0 C0.33 0.66 0.66 1.32 1 2 C-0.65 3.98 -2.3 5.96 -4 8 C-4.66 7.67 -5.32 7.34 -6 7 C-4.02 4.69 -2.04 2.38 0 0 Z " fill="#C9CEC9" transform="translate(51,146)"/>
<path d="M0 0 C3.3 0 6.6 0 10 0 C7.60236815 2.39763185 6.66726502 2.34280586 3.375 2.625 C2.55773437 2.69976562 1.74046875 2.77453125 0.8984375 2.8515625 C0.27195313 2.90054688 -0.35453125 2.94953125 -1 3 C-0.67 2.01 -0.34 1.02 0 0 Z " fill="#66868A" transform="translate(184,41)"/>
</svg>
